<svg xmlns="http://www.w3.org/2000/svg" viewBox="0 0 64 64" role="img" aria-label="Transparent pink cat paw favicon">
  <defs>
    <radialGradient id="glow" cx="50%" cy="52%" r="58%">
      <stop offset="0%" stop-color="#FFD8E8" stop-opacity="0.95"/>
      <stop offset="55%" stop-color="#F8AFC8" stop-opacity="0.55"/>
      <stop offset="100%" stop-color="#F06F9A" stop-opacity="0"/>
    </radialGradient>
    <linearGradient id="fill" x1="16" y1="12" x2="48" y2="54" gradientUnits="userSpaceOnUse">
      <stop offset="0" stop-color="#FFEAF1"/>
      <stop offset="0.55" stop-color="#F8AFC8"/>
      <stop offset="1" stop-color="#F06F9A"/>
    </linearGradient>
  </defs>

  <g filter="url(#glow-filter)">
    <circle cx="32" cy="34" r="22" fill="url(#glow)" opacity="0.85"/>
  </g>

  <defs>
    <filter id="glow-filter" x="-30%" y="-30%" width="160%" height="160%">
      <feGaussianBlur stdDeviation="5.5" result="blur"/>
      <feColorMatrix in="blur" type="matrix" values="1 0 0 0 0.96 0 1 0 0 0.62 0 0 1 0 0.76 0 0 0 0.50 0"/>
      <feBlend in="SourceGraphic" mode="screen"/>
    </filter>
  </defs>

  <g fill="url(#fill)" stroke="#D84E82" stroke-width="1.6" stroke-linejoin="round">
    <ellipse cx="20" cy="19" rx="6.2" ry="7.1"/>
    <ellipse cx="32" cy="15.2" rx="6.2" ry="7.1"/>
    <ellipse cx="44" cy="19" rx="6.2" ry="7.1"/>
    <ellipse cx="51.5" cy="31.4" rx="5.9" ry="6.7"/>
    <ellipse cx="12.5" cy="31.4" rx="5.9" ry="6.7"/>
    <path d="M32 29c9.4 0 16.6 6 16.6 13.6 0 8.1-7.4 13.2-16.6 13.2S15.4 50.7 15.4 42.6C15.4 35 22.6 29 32 29Z"/>
  </g>

  <path d="M24.2 39.2c2.7-1.2 5.5-1.8 7.8-1.8 2.6 0 5.6.6 8.2 2" fill="none" stroke="#FFF9FC" stroke-linecap="round" stroke-width="1.7" opacity=".32"/>
</svg>
